<svg xmlns="http://www.w3.org/2000/svg" width="24" height="24" viewBox="0 0 24 24"><path d="M12 0L1.605 2.045l1.396 15.559L12 24l8.999-6.396 1.396-15.559L12 0zm3.508 16.015c-.771 0-1.148-.55-1.683-.992l-1.108.645c.613 1.193 1.473 2.103 2.919 2.103 1.487 0 2.527-.702 2.527-2.153 0-1.123-.727-1.765-2.02-2.172l-.546-.191c-.647-.22-.908-.487-.908-1.026 0-.486.378-.836.973-.836.566 0 .927.25 1.276.779l1.073-.695c-.591-.953-1.392-1.4-2.421-1.4-1.344 0-2.2.86-2.2 1.921 0 1.132.766 1.75 1.831 2.09l.545.191c.693.235.975.52.975 1.045-.001.516-.453.867-1.048.867zm-5.09-.307c-.27 0-.442-.177-.545-.369-.137-.255-.07-.588-.07-1.079v-4.937h-1.812v5.016c0 1.489.54 2.167 1.72 2.167.426 0 .872-.074 1.257-.241v-1.426c-.246.04-.41.068-.576.068z"/></svg>
