<svg xmlns="http://www.w3.org/2000/svg" width="24" height="24" viewBox="0 0 24 24"><path d="M12 0L1.605 2.045l1.396 15.559L12 24l8.999-6.396 1.396-15.559L12 0zm3.95 16.015c-.758 0-1.138-.535-1.664-.97l-1.094.63c.604 1.168 1.452 2.059 2.875 2.059 1.465 0 2.484-.688 2.484-2.111 0-1.1-.713-1.729-1.978-2.124l-.535-.186c-.635-.214-.891-.476-.891-1.002 0-.475.367-.817.947-.817.551 0 .902.243 1.24.758l1.043-.676c-.577-.929-1.36-1.364-2.369-1.364-1.315 0-2.156.838-2.156 1.874 0 1.105.747 1.708 1.784 2.035l.531.186c.676.229.952.505.952 1.019 0 .502-.44.843-1.018.843zm-5.064-.299c-.268 0-.438-.174-.538-.363-.135-.25-.069-.577-.069-1.058v-4.845h-1.793v4.924c0 1.463.53 2.128 1.691 2.128.42 0 .861-.073 1.239-.237v-1.406c-.243.039-.406.065-.569.065z"/></svg>
